<svg width="368" height="298" viewBox="0 0 368 298" fill="none" xmlns="http://www.w3.org/2000/svg">
<g clip-path="url(#clip0_8109_89450)">
<path d="M318.48 155.673C318.48 85.0333 261.215 27.7647 190.575 27.7647C119.936 27.7647 62.6669 85.0333 62.6669 155.673C62.6669 198.456 83.6951 236.308 115.961 259.527L104.152 291.722C103.387 293.799 104.924 296 107.136 296H274.011C276.222 296 277.76 293.799 277.002 291.722L265.19 259.527C297.452 236.308 318.48 198.456 318.48 155.673Z" fill="#6EDBFF" stroke="white" stroke-width="2" stroke-linecap="round" stroke-linejoin="round"/>
<mask id="mask0_8109_89450" style="mask-type:luminance" maskUnits="userSpaceOnUse" x="39" y="-4" width="296" height="300">
<path d="M334.719 136.916C334.719 122.282 325.04 104.097 320.515 91.001C320.191 90.0593 310.833 112.005 310.488 111.073C301.187 86.0737 284.289 64.7704 262.605 49.9638C259.988 48.1756 244.641 12.3055 241.887 10.7113C223.07 -0.180207 199.146 -4 175.839 -4C149.164 -4 129.166 -3.91888 110.98 15.039C109.048 17.0565 114.317 52.9371 112.236 54.5525C90.8516 71.1437 74.8741 94.3658 67.3827 121.133C67.291 121.457 67.2028 121.785 67.1111 122.113C66.8995 122.889 54.9639 86.4229 54.7699 87.2024C52.2622 97.1945 41.5576 77.4219 41.5576 88.1935C41.5576 105.61 36.5351 134.906 40.5665 150.788C45.0494 168.448 73.0295 206.17 73.3257 206.843C82.5878 228.009 97.419 246.184 115.957 259.523L104.149 291.718C103.383 293.796 104.921 295.997 107.132 295.997H274.008C276.219 295.997 277.757 293.796 276.999 291.718L265.186 259.523C291.255 240.763 309.99 212.444 316.223 179.689C317.704 171.908 328.112 167.7 328.112 159.489" fill="white"/>
</mask>
<g mask="url(#mask0_8109_89450)">
<path d="M63.422 210.596C87.6282 211.982 114.197 211.182 138.569 205.105C139.701 204.819 140.834 204.526 141.962 204.233C144.809 203.493 150.328 207.961 153.147 207.193C154.995 206.688 156.815 206.149 158.599 205.524C163.079 203.955 164.02 202.364 165.907 201.532C185.479 192.915 219.413 185.872 221.321 185.886C222.516 185.893 235.087 185.861 240.48 185.928C249.876 186.185 259.6 187.349 268.939 187.342C271.962 187.342 276.315 184.528 279.291 184.366C286.808 183.96 293.255 185.166 300.919 184.619C312.319 183.911 323.372 185.078 334.719 183.734L335.805 191.282C328.497 192.227 323.157 189.945 316.117 190.386C304.383 191.116 291.033 194.234 278.755 194.502C277.891 194.52 275.694 193.656 274.83 193.68C266.368 193.91 257.385 194.396 248.931 194.188C243.248 194.107 225.056 194.012 223.095 194.125C222.732 194.167 210.613 196.096 202.832 198.304C179.846 204.826 169.523 209.411 150.84 215.121C146.565 216.426 123.886 218.691 105.87 221.019C98.2058 222.01 90.5309 224.246 86.1186 224.256C77.2551 224.175 70.6454 224.179 61.8419 223.124L63.422 210.607V210.596Z" fill="white"/>
<path d="M299.646 184.108C296.87 171.16 300.845 147.878 302.407 147.882C303.963 147.882 306.481 156.484 301.727 179.752C301.43 180.888 301.138 182.02 300.841 183.156L299.646 184.108Z" fill="black"/>
<path d="M321.644 100.055C317.648 119.2 312.431 139.621 305.613 161.006C302.619 170.402 299.487 179.442 296.267 188.122" stroke="black" stroke-width="1.2" stroke-linecap="round" stroke-linejoin="round"/>
<path d="M327.174 129.354C320.074 142.023 313.207 157.288 308.227 175.111C307.042 179.346 306.033 183.487 305.176 187.512" stroke="black" stroke-width="1.2" stroke-linecap="round" stroke-linejoin="round"/>
<path d="M295.279 185.942C287.523 166.088 291.643 146.69 292.898 146.584C294.154 146.478 296.464 155.08 300.848 185.473C300.421 186.355 299.998 187.24 299.571 188.122L295.282 185.942H295.279Z" fill="#6EDBFF" stroke="black" stroke-width="1.2" stroke-linecap="round" stroke-linejoin="round"/>
<path d="M306.816 184.542C323.996 169.714 323.996 158.773 321.968 158.773C319.757 158.773 314.544 163.715 303.822 184.905C303.349 185.977 302.876 187.05 302.404 188.122L306.813 184.542H306.816Z" fill="#6EDBFF" stroke="black" stroke-width="1.2" stroke-linecap="round" stroke-linejoin="round"/>
<path d="M327.251 131.537L325.213 130.616C324.281 130.195 323.184 130.61 322.763 131.542L313.468 152.12C313.047 153.052 313.461 154.148 314.393 154.569L316.431 155.49C317.363 155.911 318.46 155.497 318.881 154.565L328.176 133.987C328.597 133.055 328.183 131.958 327.251 131.537Z" fill="black" stroke="black" stroke-width="1.2" stroke-linecap="round" stroke-linejoin="round"/>
<path d="M322.359 103.983L320.194 103.422C319.204 103.165 318.193 103.759 317.937 104.749L310.779 132.345C310.523 133.335 311.117 134.346 312.107 134.603L314.271 135.164C315.261 135.421 316.272 134.826 316.529 133.837L323.686 106.24C323.943 105.251 323.348 104.24 322.359 103.983Z" fill="black" stroke="black" stroke-width="1.2" stroke-linecap="round" stroke-linejoin="round"/>
<path d="M88.4425 70.8545C132.95 70.1597 180.481 71.1155 230.653 74.4169C260.901 76.4096 290.02 79.1149 317.947 82.3668" stroke="black" stroke-width="1.2" stroke-linecap="round" stroke-linejoin="round"/>
<path d="M291.587 62.2521C282.208 61.8606 271.013 62.1075 258.524 63.8357C242.885 66.0013 229.68 69.874 219.377 73.7114" stroke="black" stroke-width="1.2" stroke-linecap="round" stroke-linejoin="round"/>
<path d="M278.72 125.767L267.99 127.778L282.578 128.197L278.219 127.277L278.72 125.767Z" fill="white" stroke="white" stroke-width="1.2" stroke-linecap="round" stroke-linejoin="round"/>
<path d="M251.639 122.833L241.16 124.088L254.072 124.843L251.639 122.833Z" fill="white" stroke="white" stroke-width="1.2" stroke-linecap="round" stroke-linejoin="round"/>
<path d="M226.822 126.603L219.782 130.042L230.931 129.425L226.822 128.324V126.603Z" fill="white" stroke="white" stroke-width="1.2" stroke-linecap="round" stroke-linejoin="round"/>
<path d="M231.771 126.98L225.733 128.324" stroke="white" stroke-width="1.2" stroke-linecap="round" stroke-linejoin="round"/>
<path d="M282.578 126.603L276.875 126.942" stroke="white" stroke-width="1.2" stroke-linecap="round" stroke-linejoin="round"/>
<path d="M90.3822 126.585C88.1249 124.85 85.335 122.984 81.9879 121.281C76.3128 118.389 71.0434 116.978 67.0297 116.251" stroke="black" stroke-width="1.2" stroke-linecap="round" stroke-linejoin="round"/>
<path d="M188.928 124.843L176.855 127.654L190.572 128.324L187.588 126.772L188.928 124.843Z" fill="white" stroke="white" stroke-width="1.2" stroke-linecap="round" stroke-linejoin="round"/>
<path d="M193.037 126.585H186.36" stroke="white" stroke-width="1.2" stroke-linecap="round" stroke-linejoin="round"/>
<path d="M160.172 131.301L149.44 134.736H163.777L159.333 133.481L160.172 131.301Z" fill="white" stroke="white" stroke-width="1.2" stroke-linecap="round" stroke-linejoin="round"/>
<path d="M164.951 132.391L158.412 133.481" stroke="white" stroke-width="1.2" stroke-linecap="round" stroke-linejoin="round"/>
<path d="M120.182 135.205L107.82 141.512L124.468 140.757L119.678 138.74L120.182 135.205Z" fill="white" stroke="white" stroke-width="1.2" stroke-linecap="round" stroke-linejoin="round"/>
<path d="M139.856 128.324L130.524 133.019L145.069 132.391L139.856 130.67V128.324Z" fill="white" stroke="white" stroke-width="1.2" stroke-linecap="round" stroke-linejoin="round"/>
<path d="M93.8633 136.719L87.9767 146.305L101.513 139.579L95.7961 139.664L93.8633 136.719Z" fill="white" stroke="white" stroke-width="1.2" stroke-linecap="round" stroke-linejoin="round"/>
<path d="M76.9624 152.95L86.9686 160.096L85.5402 149.081L83.0995 153.37L76.9624 152.95Z" fill="white" stroke="white" stroke-width="1.2" stroke-linecap="round" stroke-linejoin="round"/>
<path d="M100.925 162.533L110.342 161.881L109.753 157.151L118.75 166.381L100.925 162.533Z" fill="white" stroke="white" stroke-width="1.2" stroke-linecap="round" stroke-linejoin="round"/>
<path d="M112.529 170.776L114.461 176.828L102.438 180.528L131.448 183.05L112.529 170.776Z" fill="white" stroke="white" stroke-width="1.2" stroke-linecap="round" stroke-linejoin="round"/>
<path d="M162.391 181.956L149.105 187.589H187.786L159.03 172.204L162.391 181.956Z" fill="white" stroke="white" stroke-width="1.2" stroke-linecap="round" stroke-linejoin="round"/>
<path d="M95.1756 141.762L93.6802 140.182L98.618 135.971L100.681 136.542L95.1756 141.762Z" fill="white"/>
<path d="M117.107 140.119L116.62 137.999L123.988 136.302L125.921 138.087L117.107 140.119Z" fill="white"/>
<path d="M81.0652 147.211L79.1311 148.2L82.8989 155.563L84.833 154.573L81.0652 147.211Z" fill="white"/>
<path d="M110.761 163.672L97.7925 156.579L101.302 155.401L112.066 161.288L110.761 163.672Z" fill="white"/>
<path d="M101.907 170.1L100.512 173.641L117.151 180.192L118.546 176.651L101.907 170.1Z" fill="white"/>
<path d="M106.762 176.729L100.967 174.497" stroke="black" stroke-width="1.2" stroke-linecap="round" stroke-linejoin="round"/>
<path d="M130.562 184.133L101.63 181.618" stroke="black" stroke-width="1.2" stroke-linecap="round" stroke-linejoin="round"/>
<path d="M167.59 184.877L141.359 177.297L146.258 174.754L168.644 181.223L167.59 184.877Z" fill="white"/>
<path d="M146.246 128.461L137.258 130.513L137.62 132.102L146.609 130.05L146.246 128.461Z" fill="white"/>
<path d="M86.0481 213.174C84.9053 188.866 90.5592 176.133 91.4127 176.197C92.2628 176.26 92.1852 188.587 91.1835 213.174C90.6121 214.01 90.0407 214.85 89.4729 215.686L86.0481 213.174Z" fill="black" stroke="black" stroke-width="1.2" stroke-linecap="round" stroke-linejoin="round"/>
<path d="M81.4978 211.594C58.5755 190.577 48.6116 153.359 50.3223 152.46C52.4491 151.345 73.9147 172.204 88.439 212.148C87.589 213.023 86.739 213.897 85.8925 214.772L81.4978 211.594Z" fill="#6EDBFF" stroke="black" stroke-width="1.2" stroke-linecap="round" stroke-linejoin="round"/>
<path d="M93.6801 212.148C103.489 192.227 104.931 166.836 103.281 166.385C102.194 166.088 94.7206 176.997 90.3859 212.949C91.1865 213.559 91.9836 214.166 92.7843 214.776L93.6836 212.152L93.6801 212.148Z" fill="#6EDBFF" stroke="black" stroke-width="1.2" stroke-linecap="round" stroke-linejoin="round"/>
<path d="M48.6113 90.5426C54.8577 117.803 63.312 147.268 74.8067 178.2C79.1979 190.016 83.7654 201.331 88.4422 212.145" stroke="black" stroke-width="1.2" stroke-linecap="round" stroke-linejoin="round"/>
<path d="M64.1413 144.595L63.7251 144.739C60.8012 145.741 57.6375 144.076 56.8121 141.096L45.6385 100.736C44.8555 97.9035 46.4955 94.9655 49.3207 94.1507C52.167 93.3289 55.1438 94.9725 55.9621 97.8189L67.552 138.038C68.342 140.785 66.843 143.67 64.1378 144.598L64.1413 144.595Z" fill="black" stroke="black" stroke-width="1.2" stroke-linecap="round" stroke-linejoin="round"/>
<path d="M218.202 233.582L152.663 240.047L149.83 231.561L215.37 225.092L218.202 233.582Z" fill="white" stroke="white" stroke-width="1.2" stroke-linecap="round" stroke-linejoin="round"/>
<path d="M257.772 229.677L230.882 232.33L228.05 223.844L254.94 221.188L257.772 229.677Z" stroke="white" stroke-width="1.2" stroke-linecap="round" stroke-linejoin="round"/>
<path d="M230.667 270.937L165.128 277.402L162.296 268.916L227.835 262.451L230.667 270.937Z" fill="white" stroke="white" stroke-width="1.2" stroke-linecap="round" stroke-linejoin="round"/>
<path d="M302.925 285.507L277.245 288.043L274.413 279.553L300.093 277.021L302.925 285.507Z" stroke="white" stroke-width="1.2" stroke-linecap="round" stroke-linejoin="round"/>
<path d="M114.028 304.147L266.248 289.126L263.416 280.64L111.199 295.658L114.028 304.147Z" fill="white" stroke="white" stroke-width="1.2" stroke-linecap="round" stroke-linejoin="round"/>
<path d="M184.367 256.211L166.718 257.954L163.886 249.468L181.535 247.725L184.367 256.211Z" stroke="white" stroke-width="1.2" stroke-linecap="round" stroke-linejoin="round"/>
<path d="M224.435 252.258L193.404 255.319L190.572 246.833L221.603 243.771L224.435 252.258Z" fill="white" stroke="white" stroke-width="1.2" stroke-linecap="round" stroke-linejoin="round"/>
<path d="M244.042 209.351L178.502 215.82L175.67 207.33L241.209 200.865L244.042 209.351Z" fill="white" stroke="white" stroke-width="1.2" stroke-linecap="round" stroke-linejoin="round"/>
<path d="M167.022 216.952L64.4515 226.062L98.6533 214.931L164.189 208.466L167.022 216.952Z" fill="white" stroke="white" stroke-width="1.2" stroke-linecap="round" stroke-linejoin="round"/>
<path d="M247.551 202.216L264.139 200.579" stroke="white" stroke-width="1.2" stroke-linecap="round" stroke-linejoin="round"/>
<path d="M249.107 206.875L261.613 205.644" stroke="white" stroke-width="1.2" stroke-linecap="round" stroke-linejoin="round"/>
<path d="M82.9052 285.687L154.786 278.594L141.853 239.828L69.9716 246.921L82.9052 285.687Z" fill="white" stroke="white" stroke-width="1.2" stroke-linecap="round" stroke-linejoin="round"/>
<path d="M69.9712 246.921L141.852 239.828L139.489 232.749L67.608 239.842L69.9712 246.921Z" fill="#6EDBFF" stroke="white" stroke-width="1.2" stroke-linecap="round" stroke-linejoin="round"/>
<path d="M162.605 253.975L185.651 251.7" stroke="white" stroke-width="1.2" stroke-linecap="round" stroke-linejoin="round"/>
<path d="M226.498 228.383L259.353 225.142" stroke="white" stroke-width="1.2" stroke-linecap="round" stroke-linejoin="round"/>
<path d="M61.5593 232.665C66.3173 232.196 66.5395 234.449 71.294 233.98C76.052 233.511 75.8298 231.257 80.5842 230.788C85.3422 230.319 85.5644 232.573 90.3224 232.104C95.0804 231.635 94.8546 229.381 99.6126 228.912C104.371 228.443 104.593 230.697 109.351 230.228C114.109 229.758 113.887 227.505 118.645 227.036C123.403 226.567 123.625 228.82 128.383 228.351C133.141 227.882 132.919 225.628 137.677 225.159" stroke="white" stroke-width="1.2" stroke-linecap="round" stroke-linejoin="round"/>
<path d="M97.7889 289.376C103.905 288.773 104.127 291.027 110.246 290.424C116.366 289.821 116.14 287.567 122.26 286.964C128.379 286.361 128.601 288.614 134.717 288.011C140.837 287.408 140.614 285.154 146.73 284.551C152.85 283.948 153.072 286.202 159.188 285.599C165.307 284.996 165.085 282.742 171.201 282.139C177.317 281.536 177.542 283.789 183.662 283.183C189.781 282.58 189.559 280.326 195.679 279.723" stroke="white" stroke-width="1.2" stroke-linecap="round" stroke-linejoin="round"/>
<path d="M200.687 239.433C205.547 238.954 205.77 241.207 210.633 240.728C215.494 240.248 215.271 237.994 220.135 237.515C224.999 237.035 225.221 239.289 230.082 238.809C234.942 238.329 234.72 236.075 239.58 235.596C244.444 235.116 244.666 237.37 249.526 236.89C254.39 236.411 254.168 234.157 259.028 233.677C263.892 233.197 264.114 235.451 268.978 234.971C273.842 234.492 273.619 232.238 278.483 231.758" stroke="white" stroke-width="1.2" stroke-linecap="round" stroke-linejoin="round"/>
<path d="M317.542 228.767L282.377 232.238L270.837 197.645L306.002 194.178L317.542 228.767Z" fill="white" stroke="white" stroke-width="1.2" stroke-linecap="round" stroke-linejoin="round"/>
<path d="M280.987 273.642L245.822 277.113L234.282 242.519L269.447 239.049L280.987 273.642Z" fill="white" stroke="white" stroke-width="1.2" stroke-linecap="round" stroke-linejoin="round"/>
<path d="M310.23 223.897L286.077 226.281L278.148 202.519L302.301 200.135L310.23 223.897Z" fill="#6EDBFF"/>
<path d="M129.477 238.695C129.98 238.025 129.707 236.971 128.867 236.341C128.028 235.711 126.94 235.743 126.437 236.412C125.934 237.082 126.207 238.136 127.046 238.767C127.886 239.397 128.974 239.365 129.477 238.695Z" stroke="white" stroke-width="1.2" stroke-linecap="round" stroke-linejoin="round"/>
<path d="M136.093 238.045C136.596 237.375 136.323 236.321 135.483 235.69C134.644 235.06 133.555 235.092 133.052 235.762C132.549 236.432 132.822 237.486 133.662 238.116C134.502 238.746 135.59 238.714 136.093 238.045Z" stroke="white" stroke-width="1.2" stroke-linecap="round" stroke-linejoin="round"/>
<path d="M132.266 247.15L88.8273 251.436" stroke="#6EDBFF" stroke-width="1.2" stroke-linecap="round" stroke-linejoin="round"/>
<path d="M91.0315 258.042L97.6447 277.857L141.084 273.572L134.471 253.753L91.0315 258.042Z" stroke="#6EDBFF" stroke-width="1.2" stroke-linecap="round" stroke-linejoin="round"/>
<path d="M133.553 260.613L96.4664 264.274" stroke="#6EDBFF" stroke-width="1.2" stroke-linecap="round" stroke-linejoin="round"/>
<path d="M135.758 267.219L98.6707 270.877" stroke="#6EDBFF" stroke-width="1.2" stroke-linecap="round" stroke-linejoin="round"/>
<path d="M242.521 247.895L243.787 251.686L244.045 252.466L244.726 254.501L249.981 253.982L249.304 251.947L252.686 251.616L257.423 265.801L254.037 266.137L255.092 269.297L258.478 268.962L263.877 268.429L267.26 268.094L266.205 264.937L262.823 265.269L258.09 251.08L261.472 250.748L262.149 252.78L267.408 252.261L266.727 250.23L266.47 249.45L265.204 245.658L242.521 247.895Z" fill="#6EDBFF"/>
<path d="M299.635 209.014C300.367 208.039 299.968 206.503 298.744 205.584C297.52 204.664 295.934 204.71 295.201 205.685C294.469 206.66 294.868 208.196 296.093 209.115C297.317 210.034 298.903 209.989 299.635 209.014Z" stroke="white" stroke-width="1.2" stroke-linecap="round" stroke-linejoin="round"/>
<path d="M283.537 218.673L287.188 208.875L298.181 217.223L301.253 214.247L308.378 218.342" stroke="white" stroke-width="1.2" stroke-linecap="round" stroke-linejoin="round"/>
<path d="M63.422 208.332C87.6282 209.718 114.197 208.917 138.569 202.84C139.701 202.554 140.834 202.262 141.962 201.969C144.809 201.228 150.328 205.697 153.147 204.928C154.995 204.424 156.815 203.884 158.599 203.26C163.079 201.69 164.02 200.1 165.907 199.267C185.479 190.651 219.413 183.607 221.321 183.621C222.516 183.628 235.087 183.597 240.48 183.664C249.876 183.921 259.6 185.085 268.939 185.078C271.962 185.078 276.315 182.263 279.291 182.101C286.808 181.695 293.255 182.902 300.919 182.355C312.319 181.646 323.372 182.814 334.719 181.47L335.805 189.018C328.497 189.963 323.157 187.681 316.117 188.122C304.383 188.855 291.033 191.97 278.755 192.238C277.891 192.255 275.694 191.391 274.83 191.416C266.368 191.642 257.385 192.132 248.931 191.924C243.248 191.843 225.056 191.748 223.095 191.86C222.732 191.903 210.613 193.832 202.832 196.04C179.846 202.561 169.523 207.147 150.84 212.857C146.565 214.162 123.886 216.426 105.87 218.754C98.2058 219.745 90.5309 221.981 86.1186 221.992C77.2551 221.911 70.6454 221.914 61.8419 220.86L63.422 208.342V208.332Z" fill="black"/>
<path d="M116.56 213.315C117.271 213.315 117.848 212.962 117.848 212.525C117.848 212.089 117.271 211.735 116.56 211.735C115.849 211.735 115.273 212.089 115.273 212.525C115.273 212.962 115.849 213.315 116.56 213.315Z" fill="#6EDBFF"/>
<path d="M82.1717 214.345C82.9236 214.345 83.5332 213.938 83.5332 213.435C83.5332 212.933 82.9236 212.525 82.1717 212.525C81.4198 212.525 80.8103 212.933 80.8103 213.435C80.8103 213.938 81.4198 214.345 82.1717 214.345Z" fill="#6EDBFF"/>
<path d="M137.176 206.586C137.814 206.586 138.332 206.068 138.332 205.429C138.332 204.79 137.814 204.272 137.176 204.272C136.537 204.272 136.019 204.79 136.019 205.429C136.019 206.068 136.537 206.586 137.176 206.586Z" fill="#6EDBFF"/>
<path d="M141.898 213.312C142.194 213.312 142.435 213.072 142.435 212.776C142.435 212.48 142.194 212.24 141.898 212.24C141.602 212.24 141.362 212.48 141.362 212.776C141.362 213.072 141.602 213.312 141.898 213.312Z" fill="#6EDBFF"/>
<path d="M142.401 202.939C142.606 202.159 142.363 201.419 141.858 201.287C141.353 201.154 140.778 201.678 140.573 202.458C140.368 203.238 140.611 203.978 141.116 204.111C141.62 204.244 142.196 203.719 142.401 202.939Z" fill="#6EDBFF"/>
<path d="M222.785 192.876C223.574 192.876 224.213 192.45 224.213 191.924C224.213 191.398 223.574 190.972 222.785 190.972C221.996 190.972 221.356 191.398 221.356 191.924C221.356 192.45 221.996 192.876 222.785 192.876Z" fill="#6EDBFF"/>
<path d="M221.836 185.343C222.362 185.343 222.788 184.651 222.788 183.798C222.788 182.944 222.362 182.253 221.836 182.253C221.31 182.253 220.884 182.944 220.884 183.798C220.884 184.651 221.31 185.343 221.836 185.343Z" fill="#6EDBFF"/>
<path d="M247.322 188.675C244.891 188.675 242.923 189.776 242.923 191.134C242.923 191.388 242.99 191.631 243.117 191.86C245.505 191.878 247.576 191.899 248.93 191.917C249.766 191.938 250.612 191.949 251.462 191.956C251.625 191.698 251.72 191.423 251.72 191.134C251.72 189.776 249.752 188.675 247.322 188.675Z" fill="#6EDBFF"/>
<path d="M91.8318 217.149C91.4156 217.167 87.6064 217.372 86.7246 220.084C86.5342 220.673 86.5024 221.332 86.6118 221.967C89.1583 221.879 92.6465 221.16 96.5474 220.377C96.6215 220.01 96.6427 219.583 96.4875 219.153C95.9126 217.527 93.3378 217.093 91.8283 217.153L91.8318 217.149Z" fill="#6EDBFF"/>
<path d="M286.521 187.981C288.015 187.439 288.933 186.191 288.571 185.195C288.209 184.199 286.705 183.832 285.211 184.375C283.717 184.918 282.799 186.165 283.161 187.161C283.523 188.157 285.027 188.524 286.521 187.981Z" fill="#6EDBFF"/>
<path d="M283.83 185.984C284.767 185.984 285.527 185.564 285.527 185.046C285.527 184.528 284.767 184.108 283.83 184.108C282.893 184.108 282.134 184.528 282.134 185.046C282.134 185.564 282.893 185.984 283.83 185.984Z" fill="#6EDBFF"/>
<path d="M297.477 188.432C298.145 188.432 298.686 188.143 298.686 187.787C298.686 187.43 298.145 187.141 297.477 187.141C296.808 187.141 296.267 187.43 296.267 187.787C296.267 188.143 296.808 188.432 297.477 188.432Z" fill="#6EDBFF"/>
<path d="M291.646 183.533C292.392 183.533 292.997 183.07 292.997 182.5C292.997 181.929 292.392 181.466 291.646 181.466C290.9 181.466 290.296 181.929 290.296 182.5C290.296 183.07 290.9 183.533 291.646 183.533Z" fill="#6EDBFF"/>
<path d="M163.78 206.875C168.386 205.09 173.219 203.352 178.28 201.701C189.277 198.11 199.735 195.447 209.441 193.462" stroke="#6EDBFF" stroke-width="1.2" stroke-linecap="round" stroke-linejoin="round"/>
<path d="M150.942 211.735L153.298 203.362" stroke="#6EDBFF" stroke-width="1.2" stroke-linecap="round" stroke-linejoin="round"/>
<path d="M267.871 190.347L269.511 183.798" stroke="#6EDBFF" stroke-width="1.2" stroke-linecap="round" stroke-linejoin="round"/>
<path d="M58.2901 135.868C57.7963 135.868 57.3448 135.544 57.2002 135.047L47.1975 99.9314C47.0247 99.3318 47.3739 98.704 47.977 98.5312C48.5801 98.3584 49.2044 98.7075 49.3772 99.3107L59.3799 134.426C59.5528 135.026 59.2036 135.653 58.6005 135.826C58.4982 135.854 58.3924 135.868 58.2901 135.868Z" fill="#6EDBFF"/>
<path d="M276.875 107.377L280.085 107.585L275.284 110.237L276.875 107.377Z" fill="white" stroke="white" stroke-width="1.2" stroke-linecap="round" stroke-linejoin="round"/>
<path d="M283.936 107.733L281.136 109.387L286.589 108.805L283.936 107.733Z" fill="white" stroke="white" stroke-width="1.2" stroke-linecap="round" stroke-linejoin="round"/>
<path d="M285.89 114.738L284.088 117.09L278.084 114.738H285.89Z" fill="white" stroke="white" stroke-width="1.2" stroke-linecap="round" stroke-linejoin="round"/>
<path d="M288.991 121.192L285.89 124.783L291.692 122.833L288.991 121.192Z" fill="white" stroke="white" stroke-width="1.2" stroke-linecap="round" stroke-linejoin="round"/>
<path d="M291.495 114.488L295.244 117.091L296.267 115.789L291.495 114.488Z" fill="white" stroke="white" stroke-width="1.2" stroke-linecap="round" stroke-linejoin="round"/>
<path d="M292.045 104.584L291.692 105.733H295.096L292.045 104.584Z" fill="white" stroke="white" stroke-width="1.2" stroke-linecap="round" stroke-linejoin="round"/>
<path d="M295.995 107.134L299.399 106.534L299.798 107.984L295.995 107.134Z" fill="white" stroke="white" stroke-width="1.2" stroke-linecap="round" stroke-linejoin="round"/>
<path d="M305.701 107.733L302.351 108.805L304.026 109.627L305.701 107.733Z" fill="white" stroke="white" stroke-width="1.2" stroke-linecap="round" stroke-linejoin="round"/>
<path d="M275.697 129.174L282.578 129.372" stroke="black" stroke-width="1.2" stroke-linecap="round" stroke-linejoin="round"/>
<path d="M241.249 125.224L247.11 125.566" stroke="black" stroke-width="1.2" stroke-linecap="round" stroke-linejoin="round"/>
<path d="M221.468 131.079L224.491 130.91" stroke="black" stroke-width="1.2" stroke-linecap="round" stroke-linejoin="round"/>
<path d="M178.305 128.984L183.715 129.248" stroke="black" stroke-width="1.2" stroke-linecap="round" stroke-linejoin="round"/>
<path d="M162.338 135.883H164.584" stroke="black" stroke-width="1.2" stroke-linecap="round" stroke-linejoin="round"/>
<path d="M149.559 135.883H156.822" stroke="black" stroke-width="1.2" stroke-linecap="round" stroke-linejoin="round"/>
<path d="M142.463 133.657L145.651 133.52" stroke="black" stroke-width="1.2" stroke-linecap="round" stroke-linejoin="round"/>
<path d="M130.192 134.186L138.357 133.833" stroke="black" stroke-width="1.2" stroke-linecap="round" stroke-linejoin="round"/>
<path d="M108.995 142.588L122.842 141.928" stroke="black" stroke-width="1.2" stroke-linecap="round" stroke-linejoin="round"/>
<path d="M101.419 136.63L99.5636 138.39" stroke="black" stroke-width="1.2" stroke-linecap="round" stroke-linejoin="round"/>
<path d="M102.057 140.588L88.954 147.099" stroke="black" stroke-width="1.2" stroke-linecap="round" stroke-linejoin="round"/>
<path d="M80.5915 146.778L78.3624 147.973L81.0112 153.063" stroke="black" stroke-width="1.2" stroke-linecap="round" stroke-linejoin="round"/>
<path d="M76.4751 153.994L86.4813 161.14" stroke="black" stroke-width="1.2" stroke-linecap="round" stroke-linejoin="round"/>
<path d="M97.4188 157.034L104.431 160.868" stroke="black" stroke-width="1.2" stroke-linecap="round" stroke-linejoin="round"/>
<path d="M100.452 163.591L117.851 167.344" stroke="black" stroke-width="1.2" stroke-linecap="round" stroke-linejoin="round"/>
<path d="M141.158 177.833L155.15 181.879" stroke="black" stroke-width="1.2" stroke-linecap="round" stroke-linejoin="round"/>
<path d="M149.365 188.742H181.716" stroke="black" stroke-width="1.2" stroke-linecap="round" stroke-linejoin="round"/>
<path d="M229.549 108.534C231.041 108.887 232.738 109.197 234.614 109.398C236.85 109.638 238.878 109.67 240.638 109.596" stroke="black" stroke-width="1.2" stroke-linecap="round" stroke-linejoin="round"/>
<path d="M208.108 102.753L203.777 106.71C203.752 107.215 203.777 108.111 204.232 109.081C205.075 110.879 206.747 111.553 207.145 111.701C208.454 109.373 209.766 107.049 211.074 104.721L208.105 102.753H208.108Z" fill="black" stroke="black" stroke-width="1.2" stroke-linecap="round" stroke-linejoin="round"/>
<path d="M277.108 137.145L278.914 136.186L281.365 138.877C281.859 139.42 282.095 140.15 282.021 140.88C281.541 145.554 280.261 149.723 278.099 152.297C274.678 156.368 270.378 157.719 268.301 156.371C265.758 154.721 270.177 148.7 271.01 145.261C272.861 142.796 275.26 139.611 277.111 137.145H277.108Z" fill="white" stroke="white" stroke-width="1.2" stroke-linecap="round" stroke-linejoin="round"/>
<path d="M262.651 97.5331C265.349 106.118 262.901 114.061 268.788 123.894C271.853 129.015 275.369 132.793 278.315 135.438C279.242 136.271 279.553 137.597 279.069 138.747C277.74 141.903 274.72 147.331 270.742 144.82C265.751 141.78 259.074 136.916 252.75 129.478C243.566 118.678 239.531 107.638 237.686 101.025C231.828 110.23 220.609 119.083 212.718 135.198C206.486 147.928 207.509 157.376 202.088 168.247C197.866 163.835 193.644 159.419 189.422 155.006C190.23 146.961 192.064 135.121 196.484 123.612C199.439 115.92 205.573 108.347 208.811 103.12C210.74 91.1914 226.192 88.063 227.5 81.3616C227.656 80.5645 262.651 97.5401 262.651 97.5401V97.5331Z" fill="black" stroke="black" stroke-width="1.2" stroke-linecap="round" stroke-linejoin="round"/>
<path d="M181.285 87.4739C183.849 83.2273 191.633 66.7807 193.824 64.929C196.349 68.8158 199.273 72.9565 202.655 77.2278C206.062 81.5343 209.448 85.3612 212.672 88.733C211.67 90.366 210.676 92.0837 209.695 93.8896C207.269 98.3689 205.332 102.686 203.777 106.71C209.448 101.783 220.467 109.158 224.149 110.848C225.218 108.216 229.556 97.6212 227.845 89.4137C219.546 76.2614 212.937 64.4881 204.637 51.3357C205.674 46.3873 206.708 41.4388 207.745 36.4869C206.715 29.5809 204.546 28.9143 204.066 28.8085C201.322 28.1983 197.301 33.3549 193.824 41.6822C192.875 41.8515 191.922 42.0208 190.974 42.1901C187.835 45.0929 185.232 49.5475 184.107 51.4345C180.019 58.2946 180.675 62.975 176.471 70.3783C174.672 73.5491 172.753 75.8522 171.511 77.2207C174.421 79.3687 178.379 85.3188 181.288 87.4668L181.285 87.4739Z" fill="#6EDBFF" stroke="black" stroke-width="1.2" stroke-linecap="round" stroke-linejoin="round"/>
<path d="M208.303 79.0972C208.556 78.8609 206.144 75.7112 201.023 69.1685C195.901 62.6223 194.48 57.9173 192.96 58.7884C192.23 59.2046 191.524 61.663 199.541 71.7186C203.199 76.3073 208.031 79.3546 208.303 79.0972Z" fill="white"/>
<path d="M203.449 29.3835C202.875 28.5722 202.278 27.627 201.707 26.5371C200.935 25.0628 200.395 23.6802 200.011 22.481L195.316 14.6369L188.452 11.7165L180.644 14.1114L177.526 19.7299C175.649 31.2069 186.29 42.6099 192.11 42.684C192.286 42.684 192.463 42.6734 192.636 42.6593L198.173 47.128L203.446 29.3799L203.449 29.3835Z" fill="#6EDBFF"/>
<path d="M181.395 19.4195C181.021 22.4669 191.845 43.9254 197.139 41.2554C195.563 42.1443 194.117 41.9326 192.54 42.825L180.128 37.5062L174.863 23.1687L181.395 19.4195Z" fill="white"/>
<path d="M177.526 19.7299C175.649 31.2069 186.29 42.6098 192.11 42.6839C195.725 42.7298 198.787 39.4955 199.598 34.607" stroke="black" stroke-width="1.2" stroke-linecap="round" stroke-linejoin="round"/>
<path d="M200.011 34.6247C199.824 35.7039 199.15 38.7125 196.501 40.8993C195.556 41.6788 194.6 42.1549 193.821 42.4547C193.873 43.0861 193.916 43.1495 195.09 44.3805C197.863 47.2903 200.078 42.2078 200.007 34.6282L200.011 34.6247Z" fill="black"/>
<path d="M201.601 52.3939C198.493 50.4082 197.46 48.2391 194.97 48.9057C192.176 49.6534 191.235 52.6479 191.182 52.8242C190.783 52.3904 188.723 50.0661 188.963 46.6872C189.115 44.5709 189.898 43.8303 190.378 43.1919L191.101 44.1759" fill="#6EDBFF"/>
<path d="M201.601 52.3938C198.493 50.4081 197.46 48.239 194.97 48.9056C192.176 49.6533 191.235 52.6478 191.182 52.8241C190.783 52.3903 188.723 50.066 188.963 46.6871C189.115 44.5708 190.092 43.0754 190.572 42.437" stroke="black" stroke-width="1.2" stroke-linecap="round" stroke-linejoin="round"/>
<path d="M251.914 114.487C238.434 91.3006 212.57 85.4457 202.906 58.3051C201.552 54.4994 200.762 47.3748 201.718 43.8266C202.208 42.0031 203.918 39.7493 204.536 38.2045L208.835 34.628C211.755 33.838 216.231 33.5558 222.862 34.628C225.793 46.0416 231.997 55.1907 236.17 59.3103C241.326 64.4034 246.765 66.047 250.839 69.4788C256.683 74.3955 263.13 83.2907 268.633 101.321C267.112 104.95 259.268 113.962 251.914 114.491V114.487Z" fill="#6EDBFF" stroke="black" stroke-width="1.2" stroke-linecap="round" stroke-linejoin="round"/>
<path d="M236.861 79.5415C238.649 78.3917 240.868 76.7093 243.033 74.3003C244.472 72.699 245.576 71.133 246.412 69.7574C249.752 72.7061 253.089 75.6582 256.429 78.6068C255.886 79.7108 255.138 81.0017 254.101 82.3349C252.496 84.3982 250.782 85.8231 249.442 86.7613C245.248 84.3559 241.058 81.9469 236.864 79.5415H236.861Z" stroke="black" stroke-width="1.2" stroke-linecap="round" stroke-linejoin="round"/>
<path d="M191.997 60.1146C192.328 61.4372 192.642 63.5675 196.487 68.9004" stroke="black" stroke-width="1.2" stroke-linecap="round" stroke-linejoin="round"/>
<path d="M217.917 85.5621C217.222 85.7773 214.228 86.0736 212.669 88.7294" stroke="black" stroke-width="1.2" stroke-linecap="round" stroke-linejoin="round"/>
<path d="M191.997 31.8347C191.905 32.1275 191.066 34.7093 188.939 35.1925C188.646 35.2595 188.276 35.2983 187.831 35.2454" stroke="black" stroke-width="1.2" stroke-linecap="round" stroke-linejoin="round"/>
<path d="M200.011 24.0258L195.986 22.8725C193.821 23.0206 194.787 16.1217 190.569 15.2999C185.955 14.4005 181.762 22.421 177.342 21.2923C176.334 20.601 172.136 19.6769 172.253 16.358C172.443 11.0674 182.809 2.28155 195.238 8.34807C202.331 12.5417 202.543 23.1793 202.123 27.1966C201.418 26.1385 200.712 25.0839 200.007 24.0258H200.011Z" fill="black" stroke="black" stroke-width="1.2" stroke-linecap="round" stroke-linejoin="round"/>
<path d="M198.176 25.6166C199.384 25.6166 200.363 24.0406 200.363 22.0966C200.363 20.1525 199.384 18.5766 198.176 18.5766C196.969 18.5766 195.99 20.1525 195.99 22.0966C195.99 24.0406 196.969 25.6166 198.176 25.6166Z" fill="#6EDBFF"/>
<path d="M196.127 23.3381C196.035 22.9536 195.986 22.5339 195.986 22.0966C195.986 20.1532 196.963 18.5766 198.173 18.5766C199.383 18.5766 200.36 20.1532 200.36 22.0966C200.36 23.3134 199.979 24.3821 199.397 25.017" stroke="black" stroke-width="1.2" stroke-linecap="round" stroke-linejoin="round"/>
<path d="M193.824 42.4512C195.274 46.0981 198.582 45.5938 201.601 52.3939" stroke="black" stroke-width="1.2" stroke-linecap="round" stroke-linejoin="round"/>
<path d="M204.532 38.2011C203.918 39.746 202.045 41.9645 201.714 43.8232C200.821 48.8246 201.407 51.5827 201.689 53.0641C201.809 50.9972 204.878 41.6259 207.297 41.6823C209.089 41.7246 210.648 43.5199 213.431 46.5496C213.727 44.0172 213.871 39.5978 212.002 34.6811C211.117 32.3533 209.999 30.4875 208.983 29.0767C207.167 27.7611 202.631 27.0274 202.13 27.1932L203.449 29.38C205.724 30.0466 205.911 34.7376 204.532 38.2011Z" fill="#6EDBFF" stroke="black" stroke-width="1.2" stroke-linecap="round" stroke-linejoin="round"/>
<path d="M227.771 53.6002C221.712 47.5372 221.751 51.5368 224.526 47.128C225.098 46.2251 220.252 35.6863 222.862 34.6247C252.037 42.4371 260.52 54.8593 249.741 68.6254C248.905 67.853 250.359 69.0663 249.244 68.255C247.801 67.204 241.365 63.2502 240.123 62.6012C246.214 54.7077 229.327 53.3744 227.771 53.5966V53.6002Z" fill="#6EDBFF"/>
<path d="M222.862 34.6247C238.131 38.1023 248.715 45.4809 252.44 51.2582C255.897 56.6193 253.971 62.4777 249.742 68.6254C248.906 67.853 250.359 69.0663 249.244 68.255C247.802 67.204 241.365 63.2502 240.124 62.6012C241.88 60.1111 241.841 58.6297 241.365 57.8891C240.42 56.4077 232.893 52.8595 227.775 53.6002" stroke="black" stroke-width="1.2" stroke-linecap="round" stroke-linejoin="round"/>
<path d="M220.421 45.9077C218.288 41.2731 219.377 34.8187 222.333 34.6247" stroke="black" stroke-width="1.2" stroke-linecap="round" stroke-linejoin="round"/>
<path d="M175.797 156.865L172.464 152.428C176.844 146.887 190.011 153.666 190.572 154.206C192.818 155.426 203.131 163.64 202.087 168.24C201.227 170.899 199.114 176.602 197.502 177.163C191.118 170.599 182.181 163.429 175.797 156.865Z" fill="white" stroke="white" stroke-width="1.2" stroke-linecap="round" stroke-linejoin="round"/>
<path d="M193.027 168.19C182.851 155.115 174.411 150.654 172.464 152.424C170.954 153.796 175.836 161.951 187.027 173.23C188.315 174.528 195.139 179.325 197.499 177.163C199.143 175.653 195.711 171.64 193.023 168.19H193.027Z" fill="#6EDBFF" stroke="white" stroke-width="1.2" stroke-linecap="round" stroke-linejoin="round"/>
<path d="M236.074 98.7604C236.455 100.404 236.91 102.129 237.457 103.92C238.328 106.774 239.442 110.068 240.44 112.399" stroke="#6EDBFF" stroke-width="1.2" stroke-linecap="round" stroke-linejoin="round"/>
<path d="M177.324 114.569L161.879 75.4961L169.462 72.4981L184.907 111.571C185.715 113.634 178.615 116.992 177.324 114.569Z" fill="black" stroke="black" stroke-width="1.2" stroke-linecap="round" stroke-linejoin="round"/>
<path d="M173.889 76.8293C175.12 76.8716 178.072 77.1467 179.931 79.3441C180.17 79.6262 180.841 80.4727 181.25 81.9682C182.699 87.2693 180.192 98.3937 179.842 99.9068C178.396 97.72 178.217 91.195 176.069 88.7331C173.568 85.8585 171.081 83.4989 168.828 81.5908C170.513 80.0036 172.199 78.4165 173.885 76.8293H173.889Z" fill="#6EDBFF" stroke="black" stroke-width="1.2" stroke-linecap="round" stroke-linejoin="round"/>
<path d="M166.324 85.0686C179.971 79.2734 183.696 57.2979 174.644 35.9852C165.593 14.6724 147.194 2.09292 133.547 7.88818C119.901 13.6834 116.176 35.6588 125.227 56.9716C134.279 78.2844 152.678 90.8639 166.324 85.0686Z" fill="white"/>
<path d="M181.698 51.8965C180.213 52.6901 179.179 59.6948 178.047 59.8218C167.149 61.0386 154.25 41.6187 153.379 29.983C156.13 28.8155 165.777 26.7875 168.528 25.62L178.248 42.825L181.698 51.8965Z" fill="white" stroke="#6EDBFF" stroke-width="1.2" stroke-linecap="round" stroke-linejoin="round"/>
<path d="M172.337 54.4536C172.792 54.5665 173.402 54.637 174.072 54.4783C176.347 53.9351 177.12 51.2581 177.166 51.0994" stroke="#6EDBFF" stroke-width="1.2" stroke-miterlimit="10" stroke-linecap="round"/>
<path d="M144.522 21.9413C144.706 22.6643 146.342 28.7379 152.19 31.1821C157.35 33.3407 163.646 31.7782 167.716 27.193C164.637 23.2145 161.562 19.236 158.483 15.2575C157.495 15.9876 156.416 16.7142 155.238 17.4196C151.386 19.7298 147.662 21.1018 144.522 21.9413Z" fill="#6EDBFF" stroke="#6EDBFF" stroke-width="1.2" stroke-linecap="round" stroke-linejoin="round"/>
<path d="M151.669 16.8201C151.852 17.5431 153.489 23.6167 159.337 26.0609C164.497 28.2195 170.792 26.657 174.863 22.0718C171.784 18.0933 168.708 14.1148 165.629 10.1363C164.641 10.8664 163.562 11.593 162.384 12.2984C158.532 14.6086 154.808 15.9806 151.669 16.8201Z" fill="#6EDBFF" stroke="#6EDBFF" stroke-width="1.2" stroke-linecap="round" stroke-linejoin="round"/>
<path d="M163.184 47.4807C160.193 51.4592 158.726 54.7923 159.647 55.7199C160.825 56.905 165.65 53.8999 166.196 53.5543" fill="white"/>
<path d="M163.184 47.4807C160.193 51.4592 158.726 54.7923 159.647 55.7199C160.825 56.905 165.65 53.8999 166.196 53.5543" stroke="#6EDBFF" stroke-width="1.2" stroke-miterlimit="10" stroke-linecap="round"/>
<path d="M166.324 85.0686C179.971 79.2734 183.696 57.2979 174.644 35.9852C165.593 14.6724 147.194 2.09292 133.547 7.88818C119.901 13.6834 116.176 35.6588 125.227 56.9716C134.279 78.2844 152.678 90.8639 166.324 85.0686Z" stroke="black" stroke-width="1.2" stroke-linecap="round" stroke-linejoin="round"/>
<path d="M182.897 27.4647C172.809 6.66566 153.467 -3.75676 139.694 4.18615L131.67 8.81011L132.64 10.8135C135.183 9.70598 139.017 8.42919 143.528 8.54558C161.498 9.01468 172.333 31.161 175.793 44.9165C177.239 50.6656 181.412 67.2603 172.562 77.6616C170.697 79.8554 168.69 81.2557 167.223 82.1198C167.547 82.7864 167.872 83.4565 168.192 84.1231L176.217 79.4992C189.99 71.5598 192.977 48.2637 182.89 27.4647H182.897Z" fill="#6EDBFF" stroke="black" stroke-width="1.2" stroke-linecap="round" stroke-linejoin="round"/>
<path d="M132.182 56.5064C123.167 37.9153 126.465 16.4638 135.959 7.06421C134.478 7.45218 133.042 8.02357 131.674 8.81362C118.776 16.2522 116.494 39.1392 126.581 59.9347C136.668 80.7301 155.302 91.5617 168.204 84.1267C169.572 83.3366 170.814 82.3631 171.942 81.2486C159.467 84.5146 141.201 75.101 132.182 56.5099V56.5064Z" fill="black"/>
<path d="M140.365 9.85768C145.345 9.85768 150.967 12.1608 156.194 16.3439C161.809 20.8374 166.705 27.1825 170.348 34.6951C174.965 44.2146 177.011 54.4325 176.111 63.4652C175.272 71.9019 171.953 78.1942 166.772 81.1816C164.596 82.4372 162.151 83.0721 159.506 83.0721C154.526 83.0721 148.904 80.7689 143.673 76.5859C138.055 72.0924 133.163 65.7472 129.519 58.2346C124.902 48.7151 122.856 38.4973 123.756 29.4645C124.595 21.0278 127.914 14.7356 133.096 11.7482C135.272 10.4925 137.716 9.85768 140.361 9.85768M140.598 6.46466C137.451 6.46466 134.429 7.21945 131.671 8.81015C118.772 16.2487 116.49 39.1357 126.578 59.9311C134.506 76.279 147.715 86.4686 159.27 86.4686C162.416 86.4686 165.439 85.7139 168.197 84.1232C181.095 76.6846 183.377 53.7976 173.29 33.0022C165.361 16.6543 152.152 6.46466 140.598 6.46466Z" fill="white"/>
<path d="M140.365 9.85768C145.345 9.85768 150.967 12.1608 156.194 16.3439C161.809 20.8374 166.705 27.1825 170.348 34.6951C174.965 44.2146 177.011 54.4325 176.111 63.4652C175.272 71.9019 171.953 78.1942 166.772 81.1816C164.596 82.4372 162.151 83.0721 159.506 83.0721C154.526 83.0721 148.904 80.7689 143.673 76.5859C138.055 72.0924 133.163 65.7472 129.519 58.2346C124.902 48.7151 122.856 38.4973 123.756 29.4645C124.595 21.0278 127.914 14.7356 133.096 11.7482C135.272 10.4925 137.716 9.85768 140.361 9.85768M140.598 6.46466C137.451 6.46466 134.429 7.21945 131.671 8.81015C118.772 16.2487 116.49 39.1357 126.578 59.9311C134.506 76.279 147.715 86.4686 159.27 86.4686C162.416 86.4686 165.439 85.7139 168.197 84.1232C181.095 76.6846 183.377 53.7976 173.29 33.0022C165.361 16.6543 152.152 6.46466 140.598 6.46466Z" stroke="black" stroke-width="1.2" stroke-linecap="round" stroke-linejoin="round"/>
<path d="M166.873 84.6241C166.524 85.1249 164.824 85.6928 163.773 88.7648C162.426 92.7045 163.763 99.5752 167.889 103.459C170.542 105.956 173.871 106.301 178.171 104.354C180.802 103.166 183.853 98.4854 181.285 97.459C181.648 96.9123 182.544 92.239 179.617 93.2618C180.347 92.1931 180.114 88.13 178.001 89.1916C178.086 89.0646 178.477 88.458 178.315 87.6891C178.163 86.9625 177.747 86.1689 176.799 86.1689C175.977 85.7527 169.399 89.7242 167.702 85.4565C167.544 85.0121 167.032 85.065 166.873 84.6205V84.6241Z" fill="#6EDBFF" stroke="black" stroke-width="1.2" stroke-linecap="round" stroke-linejoin="round"/>
<path d="M182.16 99.6245C181.292 100.365 177.282 104.291 171.942 103.444C167.635 102.764 166.366 99.3212 165.794 100.887C166.387 101.829 167.082 102.7 167.886 103.458C170.538 105.956 173.868 106.301 178.167 104.354C179.86 103.589 181.729 101.374 182.156 99.621L182.16 99.6245Z" fill="white"/>
<path d="M181.37 93.6674C181.144 98.5488 171.97 99.5364 171.371 100.436C171.004 100.982 171.226 101.974 173.857 101.635C174.178 101.593 179.218 100.453 181.673 97.6776C181.56 97.5965 181.433 97.5224 181.285 97.4625C181.469 97.1874 181.469 94.7819 181.37 93.6709V93.6674Z" fill="white"/>
<path d="M179.67 93.1595C180.061 92.4506 179.758 90.285 179.313 89.2903C180.107 94.3446 170.82 95.4415 170.274 96.6266C169.73 97.8046 171.713 97.9175 174.044 97.1239C174.294 97.0393 177.677 95.5262 179.67 93.156V93.1595Z" fill="white"/>
<path d="M168.5 92.9584C169.498 93.0501 171.409 93.0925 173.593 92.253C175.892 91.3677 177.328 89.9463 177.998 89.1916" stroke="black" stroke-width="1.2" stroke-linecap="round" stroke-linejoin="round"/>
<path d="M174.972 86.5463C171.028 88.2181 164.232 89.2339 163.773 86.7615C163.629 85.9855 167.487 84.3102 172.453 81.6719" fill="#6EDBFF"/>
<path d="M163.872 86.4687C164.214 85.5764 166.436 86.8567 169.663 86.3065C173.469 85.661 174.584 84.155 175.296 84.3878C176.323 84.7228 174.199 87.1283 170.961 87.7808C165.205 88.9447 163.435 87.5974 163.872 86.4652V86.4687Z" fill="white"/>
<path d="M174.972 86.5463C171.028 88.2181 164.232 89.2339 163.773 86.7615C163.629 85.9855 167.487 84.3102 172.453 81.6719" stroke="black" stroke-width="1.2" stroke-linecap="round" stroke-linejoin="round"/>
<path d="M215.72 33.9298C215.219 33.9015 214.687 33.8874 214.119 33.898C213.262 33.9156 212.472 33.9862 211.763 34.0849C212.073 34.7198 212.387 35.4852 212.644 36.3811C212.828 37.0195 212.948 37.612 213.032 38.1481C213.004 37.7601 212.983 36.8078 213.537 35.8097C214.239 34.5399 215.388 34.0532 215.72 33.9298Z" fill="black" stroke="black" stroke-width="1.2" stroke-linecap="round" stroke-linejoin="round"/>
<path d="M243.005 64.2977C243.143 63.9238 244.987 60.619 240.286 56.9438C240.543 57.1519 241.379 57.882 241.58 59.1094C241.792 60.4003 241.224 61.737 240.116 62.6012C241.079 63.1655 242.039 63.7298 243.002 64.2977H243.005Z" fill="black" stroke="black" stroke-width="1.2" stroke-linecap="round" stroke-linejoin="round"/>
<path d="M185.715 79.1253C185.57 78.4799 185.337 77.7145 184.949 76.8892C184.255 75.4113 183.359 74.3709 182.682 73.7113" stroke="black" stroke-width="1.2" stroke-linecap="round" stroke-linejoin="round"/>
<path d="M282.578 158.773C280.652 157.972 277.457 156.928 273.394 156.861C268.84 156.787 265.285 157.976 263.285 158.819C260.911 157.45 256.891 155.525 251.547 154.742C245.953 153.923 241.368 154.713 238.67 155.394L240.12 161.884" fill="#6EDBFF"/>
<path d="M238.67 155.391C241.368 154.713 245.957 153.92 251.547 154.738C256.891 155.521 260.911 157.447 263.285 158.815C265.285 157.976 268.84 156.784 273.394 156.858C277.457 156.925 280.652 157.969 282.578 158.77" stroke="black" stroke-width="1.2" stroke-linecap="round" stroke-linejoin="round"/>
<path d="M207.424 177.717C205.03 177.265 202.335 176.906 199.383 176.75C193.81 176.461 188.946 176.987 185.067 177.717L186.361 181.466" fill="#6EDBFF"/>
<path d="M185.062 177.717C188.942 176.987 193.806 176.461 199.379 176.75C202.334 176.906 205.029 177.265 207.42 177.717" stroke="black" stroke-width="1.2" stroke-linecap="round" stroke-linejoin="round"/>
<path d="M170.68 97.6248C171.699 97.6248 173.713 97.4978 175.896 96.3656C177.818 95.371 179.007 94.0484 179.617 93.2618" stroke="black" stroke-width="1.2" stroke-linecap="round" stroke-linejoin="round"/>
<path d="M172.154 101.783C173.194 101.762 174.788 101.6 176.566 100.873C179 99.8785 180.53 98.3336 181.282 97.4589" stroke="black" stroke-width="1.2" stroke-linecap="round" stroke-linejoin="round"/>
<path d="M163.773 88.7648C162.426 92.7045 163.763 99.5752 167.889 103.458C170.542 105.956 173.871 106.301 178.171 104.354C180.802 103.166 183.853 98.4853 181.285 97.459C181.648 96.9123 182.544 92.2389 179.617 93.2618C180.347 92.1931 180.114 88.1299 178.001 89.1916C178.086 89.0646 178.477 88.4579 178.315 87.689C178.163 86.9625 177.747 86.1689 176.799 86.1689" stroke="black" stroke-width="1.2" stroke-linecap="round" stroke-linejoin="round"/>
<path d="M142.731 19.0774C142.996 20.6611 139.634 25.5108 139.327 34.6247C139.056 42.684 140.618 47.9781 140.565 48.2391C139.98 51.0184 134.058 50.3764 131.949 41.9609C130.27 35.2666 131.317 21.6451 136.372 17.6243C138.668 15.7973 142.481 17.5538 142.735 19.0774H142.731Z" fill="#6EDBFF"/>
<path d="M145.902 58.7426C143.218 56.4288 141.652 53.9493 140.001 55.1909C139.01 55.9351 139.066 58.8061 141.094 61.5219C143.313 64.4917 146.872 65.5674 148.05 64.1813C149.475 62.5024 148.261 60.7742 145.902 58.7426Z" fill="#6EDBFF"/>
</g>
<path d="M72.0916 203.926C81.2407 226.341 96.5728 245.577 115.957 259.527L104.149 291.722C103.384 293.799 104.921 296 107.133 296H274.008C276.219 296 277.757 293.799 276.999 291.722L265.187 259.527C291.537 240.562 310.393 211.838 316.421 178.634" stroke="white" stroke-width="2" stroke-linecap="round" stroke-linejoin="round"/>
<path d="M100.128 65.2289C84.2136 81.143 72.4756 101.229 66.6913 123.707" stroke="white" stroke-width="2" stroke-linecap="round" stroke-linejoin="round"/>
<path d="M312.833 117.972C299.212 73.7539 262.263 39.7567 216.351 30.3641" stroke="white" stroke-width="2" stroke-linecap="round" stroke-linejoin="round"/>
</g>
<defs>
<clipPath id="clip0_8109_89450">
<rect width="368" height="297.99" fill="white"/>
</clipPath>
</defs>
</svg>
